<?xml version="1.0" encoding="UTF-8"?>
<svg width="16px" height="16px" viewBox="0 0 16 16" version="1.1" xmlns="http://www.w3.org/2000/svg" xmlns:xlink="http://www.w3.org/1999/xlink">
    <title>Browser-浏览器</title>
    <g id="基金索引-ok" stroke="none" stroke-width="1" fill="none" fill-rule="evenodd" opacity="0.45">
        <g id="基金索引-默认" transform="translate(-1171.000000, -358.000000)">
            <g id="列头操作" transform="translate(999.000000, 355.000000)">
                <g id="编组-9" transform="translate(172.000000, 0.000000)">
                    <g id="Browser-浏览器" transform="translate(0.000000, 3.000000)">
                        <rect id="矩形" x="0" y="0" width="16" height="16"></rect>
                        <g id="Global" transform="translate(1.333333, 1.333333)" fill="#000000" fill-rule="nonzero">
                            <path d="M11.7618889,10.9657778 C11.7648889,10.9612963 11.7693333,10.9568519 11.7723333,10.9523704 C12.747037,9.79314815 13.3333333,8.2991111 13.3333333,6.66666667 C13.3333333,5.03422223 12.747037,3.54017777 11.7738148,2.38095185 C11.7708148,2.3764889 11.7663704,2.3735111 11.7634074,2.36904815 C11.747037,2.34970371 11.7321481,2.33184444 11.7157778,2.3139889 C11.7098148,2.30654815 11.7038519,2.30059629 11.6979259,2.29315556 L11.6368889,2.22321481 L11.6354074,2.22172592 C11.6131111,2.19642962 11.5892963,2.17112962 11.566963,2.14583333 L11.5654815,2.14434444 C11.5178519,2.09375185 11.4702222,2.04315556 11.4211481,1.99404815 L11.4196296,1.99255926 L11.3482222,1.92112963 L11.3437407,1.91666667 C11.3214444,1.89434444 11.2991111,1.87351111 11.2767778,1.85267778 C11.2693333,1.84523704 11.2618889,1.8377963 11.252963,1.83035556 C11.2381111,1.81547778 11.2232222,1.80208148 11.2083333,1.78868889 C11.2038519,1.78422592 11.1979259,1.77976296 11.1934444,1.77381111 C10.005963,0.672618519 8.41518519,0 6.66666667,0 C4.91814815,0 3.32738148,0.672618519 2.13839258,1.77381111 C2.13392962,1.77827407 2.12797777,1.78273704 2.1235111,1.78868889 C2.10862962,1.80208148 2.09374815,1.81696296 2.07887037,1.83184444 C2.07142963,1.83928519 2.06398889,1.84672592 2.05505926,1.85416667 C2.03273704,1.875 2.01041852,1.89732222 1.9880963,1.91815556 L1.98362963,1.92261852 L1.9122037,1.99404815 L1.91071481,1.99553704 C1.86160741,2.04464444 1.81398889,2.09523704 1.76637037,2.14583333 L1.76488148,2.14732223 C1.74107037,2.17261852 1.71874815,2.19791481 1.69642963,2.22321481 L1.69494074,2.22470371 C1.67410741,2.24702223 1.65327407,2.27083333 1.63392963,2.29464444 C1.62797778,2.30208148 1.62202222,2.30803704 1.61607037,2.31547777 C1.5997037,2.33333333 1.58482222,2.35267777 1.56845185,2.37053704 C1.56547778,2.375 1.56101111,2.37797777 1.55803704,2.38244075 C0.58631111,3.54017777 0,5.03422223 0,6.66666667 C0,8.2991111 0.58631111,9.79314815 1.55952222,10.9523704 C1.5625,10.9568519 1.56696296,10.9612963 1.56994074,10.9657778 L1.61607037,11.0208148 C1.62202222,11.0282592 1.62797778,11.0342222 1.63392963,11.0416667 L1.69494074,11.1115926 C1.69494074,11.1131111 1.69642963,11.1131111 1.69642963,11.1145926 C1.71874815,11.1398889 1.74107037,11.1651852 1.76488148,11.189 L1.76637037,11.1904815 C1.81398889,11.2410741 1.86160741,11.2916667 1.90922592,11.3407778 L1.91071481,11.3422592 C1.93452222,11.3660741 1.95684444,11.3898889 1.98065556,11.4121852 L1.98511852,11.4166667 C2.03422592,11.4657778 2.08482223,11.5134074 2.13541481,11.5595185 C3.32738148,12.6607037 4.91814815,13.3333333 6.66666667,13.3333333 C8.41518519,13.3333333 10.005963,12.6607037 11.1949259,11.5595185 C11.2456296,11.5130741 11.2952592,11.4654074 11.3437407,11.4166667 L11.3482222,11.4121852 C11.372037,11.3884074 11.3958148,11.3660741 11.4181481,11.3422592 L11.4196296,11.3407778 C11.4687407,11.2916667 11.5163704,11.2410741 11.5625185,11.1904815 L11.564,11.189 C11.5862963,11.1637037 11.6101111,11.1398889 11.6324444,11.1145926 C11.6324444,11.1131111 11.6339259,11.1131111 11.6339259,11.1115926 C11.6547778,11.0892963 11.6755926,11.0654815 11.6949259,11.0416667 C11.7008889,11.0342222 11.7068519,11.0282592 11.7128148,11.0208148 C11.7296296,11.0028889 11.746,10.9845185 11.7618889,10.9657778 Z M11.8229259,8.84374075 C11.6175556,9.32885185 11.3467408,9.77825925 11.0163704,10.186 C10.6442963,9.86448148 10.2375185,9.58544444 9.80355556,9.35414815 C9.97618519,8.65625925 10.0833333,7.8898889 10.1115926,7.08333333 L12.247037,7.08333333 C12.2023704,7.69196296 12.0595185,8.28274075 11.8229259,8.84374075 Z M12.247037,6.25 L10.1115926,6.25 C10.0833333,5.44344444 9.97618519,4.67707408 9.80355556,3.97914815 C10.2395926,3.74703704 10.6458148,3.46726296 11.0163704,3.14732223 C11.7344815,4.03122223 12.164037,5.11418519 12.247037,6.25 Z M8.84374075,1.51041481 C9.43451852,1.76041481 9.97174075,2.10565556 10.4449259,2.54017777 C10.170037,2.77424444 9.87414815,2.98246667 9.561,3.16220371 C9.32737037,2.49255925 9.02825925,1.91071481 8.68007408,1.44494074 C8.7351111,1.46577408 8.79018519,1.4880963 8.84374075,1.51041481 Z M7.49551852,11.936 C7.35862962,12.0431481 7.22174075,12.125 7.08333333,12.1800741 L7.08333333,9.41962962 C7.67377777,9.46085185 8.25444444,9.59233333 8.80507408,9.80951852 C8.68155556,10.1755926 8.53870371,10.5134074 8.37351852,10.8184444 C8.11459258,11.3005926 7.811,11.686 7.49551852,11.936 Z M8.37351852,2.51488148 C8.53718519,2.82142962 8.68155556,3.15922592 8.80507408,3.5238111 C8.25444444,3.741 7.67377777,3.87248148 7.08333333,3.91370371 L7.08333333,1.15476296 C7.22022223,1.20982222 7.35862962,1.29017778 7.49551852,1.39881111 C7.811,1.64732222 8.11459258,2.03273704 8.37351852,2.51488148 Z M7.08333333,8.58481481 L7.08333333,7.08333333 L9.27825925,7.08333333 C9.25448148,7.74107408 9.17262962,8.37948148 9.03570371,8.9851111 L9.03125925,9.00296296 C8.40674075,8.76614815 7.75,8.62518519 7.08333333,8.58481481 Z M7.08333333,6.25 L7.08333333,4.74851852 C7.7648889,4.70685185 8.41962963,4.56248148 9.03125925,4.33037038 L9.03570371,4.34822223 C9.17262962,4.95385185 9.25448148,5.59077777 9.27825925,6.25 L7.08333333,6.25 Z M6.25,7.08333333 L6.25,8.58481481 C5.56844444,8.62648148 4.91370371,8.77081481 4.30207408,9.00296296 L4.29762963,8.9851111 C4.16070371,8.37948148 4.07885185,7.74255556 4.05507408,7.08333333 L6.25,7.08333333 Z M4.05507408,6.25 C4.07885185,5.59225925 4.16070371,4.95385185 4.29762963,4.34822223 L4.30207408,4.33037038 C4.91370371,4.56248148 5.56696296,4.70685185 6.25,4.74851852 L6.25,6.25 L4.05507408,6.25 Z M6.25,9.41962962 L6.25,12.1785556 C6.1131111,12.1235185 5.97470371,12.0431481 5.83781481,11.9345185 C5.52233333,11.686 5.21725925,11.2991111 4.95833333,10.816963 C4.79462962,10.5104074 4.65029629,10.1726296 4.52677777,9.80803704 C5.08037038,9.59077777 5.65625925,9.46129629 6.25,9.41962962 Z M6.25,3.91370371 C5.65951852,3.87248148 5.0788889,3.741 4.52825925,3.5238111 C4.65177777,3.15773704 4.79462963,2.81994075 4.95981481,2.51488148 C5.21874075,2.03273704 5.52233333,1.64583333 5.83929629,1.39732222 C5.97618519,1.29017778 6.1131111,1.20833333 6.25148148,1.15327407 L6.25148148,3.91370371 L6.25,3.91370371 Z M4.48959258,1.51041481 C4.54462962,1.4880963 4.59822223,1.46577408 4.65325925,1.44494074 C4.30507408,1.91071481 4.00596296,2.49255925 3.77233333,3.16220371 C3.45982223,2.98362963 3.1636889,2.77529629 2.88839258,2.54017777 C3.36160742,2.10565556 3.89881481,1.76041481 4.48959258,1.51041481 Z M1.51041481,4.48959258 C1.71577408,4.00448148 1.98660741,3.55505925 2.31696296,3.14732223 C2.6875,3.46726296 3.09375185,3.74703704 3.52976296,3.97914815 C3.35714444,4.67707408 3.25,5.44344444 3.22172592,6.25 L1.08631111,6.25 C1.13095185,5.64137037 1.27381111,5.05059258 1.51041481,4.48959258 Z M1.08631111,7.08333333 L3.22172592,7.08333333 C3.25,7.8898889 3.35714444,8.65625925 3.52976296,9.35414815 C3.09580371,9.58544444 2.68901852,9.86448148 2.31696296,10.186 C1.59885185,9.3021111 1.1692963,8.21914815 1.08631111,7.08333333 Z M4.48959258,11.8229259 C3.89881481,11.5729259 3.36160742,11.2276667 2.88839258,10.7931481 C3.1636889,10.558037 3.45982223,10.3511852 3.77233333,10.1711481 C4.00596296,10.8407778 4.30507408,11.4226296 4.65325925,11.8884074 C4.59822223,11.8675556 4.54314815,11.8452222 4.48959258,11.8229259 Z M8.84374075,11.8229259 C8.78870371,11.8452222 8.7351111,11.8675556 8.68007408,11.8884074 C9.02825925,11.4226296 9.32737037,10.8407778 9.561,10.1711481 C9.87351852,10.3497037 10.1696296,10.558037 10.4449259,10.7931481 C9.97433333,11.2258519 9.43270371,11.5742222 8.84374075,11.8229259 Z" id="形状"></path>
                        </g>
                    </g>
                </g>
            </g>
        </g>
    </g>
</svg>