<svg width="16px" height="16px" viewBox="0 0 16 16" version="1.1" xmlns="http://www.w3.org/2000/svg" xmlns:xlink="http://www.w3.org/1999/xlink">
    <title>Total revenue-全部展收</title>
    <g id="基金索引-ok" stroke="none" stroke-width="1" fill="none" fill-rule="evenodd">
        <g id="基金索引-默认" transform="translate(-1372.000000, -262.000000)">
            <g id="编组-4备份" transform="translate(1368.000000, 258.000000)">
                <g id="Total-revenue-全部展收" transform="translate(4.000000, 4.000000)">
                    <rect id="矩形" x="0" y="0" width="16" height="16"></rect>
                    <g id="编组-2" transform="translate(0.666667, 2.000000)" fill="#4568F5" fill-rule="nonzero">
                        <path d="M7.13063063,7.83415999e-10 L14.5,7.83415999e-10 C14.5920475,7.83415999e-10 14.6666667,0.0746192091 14.6666667,0.166666667 L14.6666667,1.16666667 C14.6666667,1.25871413 14.5920475,1.33333333 14.5,1.33333333 L7.13063063,1.33333333 C7.03858317,1.33333333 6.96396396,1.25871413 6.96396396,1.16666667 L6.96396396,0.166666667 C6.96396396,0.0746192091 7.03858317,7.83415999e-10 7.13063063,7.83415999e-10 Z M5.33333333,5.33333333 L14.5,5.33333333 C14.5920475,5.33333333 14.6666667,5.40795254 14.6666667,5.5 L14.6666667,6.5 C14.6666667,6.59204746 14.5920475,6.66666667 14.5,6.66666667 L5.33333333,6.66666667 C5.24128588,6.66666667 5.16666667,6.59204746 5.16666667,6.5 L5.16666667,5.5 C5.16666667,5.40795254 5.24128588,5.33333333 5.33333333,5.33333333 Z M7.13063063,10.6666667 L14.5,10.6666667 C14.5920475,10.6666667 14.6666667,10.7412859 14.6666667,10.8333333 L14.6666667,11.8333333 C14.6666667,11.9253808 14.5920475,12 14.5,12 L7.13063063,12 C7.03858317,12 6.96396396,11.9253808 6.96396396,11.8333333 L6.96396396,10.8333333 C6.96396396,10.7412859 7.03858317,10.6666667 7.13063063,10.6666667 Z" id="形状结合"></path>
                        <path d="M2.98243929,8.15960731 L0.07635233,11.0627929 C-0.0255549971,11.1649701 -0.0254046316,11.3302197 0.0765269446,11.4320498 L0.568693252,11.9237258 L0.573750106,11.9286454 C0.675881698,12.0253974 0.837016977,12.0237575 0.937148442,11.9237258 L3.16666667,9.69642923 L5.3961849,11.9237258 C5.49798521,12.0254247 5.66283975,12.0254247 5.76464008,11.9237258 L6.25698121,11.4318749 C6.35888842,11.3296976 6.35873788,11.164448 6.25680619,11.0626181 L3.35089404,8.15960731 C3.24909377,8.05790867 3.08423956,8.05790867 2.98243929,8.15960731 Z" id="路径"></path>
                        <path d="M2.98243929,0.0762739767 L0.0763523308,2.9794596 C-0.0255549963,3.08163679 -0.0254046309,3.2468864 0.0765269454,3.34871644 L0.568693253,3.84039248 L0.573750107,3.84531206 C0.675881699,3.94206406 0.837016978,3.94042421 0.937148442,3.84039248 L3.16666667,1.61309589 L5.3961849,3.84039248 C5.49798521,3.9420914 5.66283975,3.9420914 5.76464008,3.84039248 L6.25698121,3.3485416 C6.35888842,3.24636431 6.35873788,3.08111471 6.25680619,2.97928479 L3.35089404,0.0762739767 C3.24909377,-0.0254246589 3.08423956,-0.0254246589 2.98243929,0.0762739767 Z" id="路径备份" transform="translate(3.166667, 1.958333) rotate(180.000000) translate(-3.166667, -1.958333) "></path>
                    </g>
                </g>
            </g>
        </g>
    </g>
</svg>